<svg xmlns="http://www.w3.org/2000/svg" xmlns:xlink="http://www.w3.org/1999/xlink" width="500" zoomAndPan="magnify" viewBox="0 0 375 374.999991" height="500" preserveAspectRatio="xMidYMid meet" version="1.0"><defs><clipPath id="8cc9aa0d47"><path d="M 76 157 L 298 157 L 298 306.941406 L 76 306.941406 Z M 76 157 " clip-rule="nonzero"/></clipPath><clipPath id="eee756c288"><path d="M 76 67.691406 L 298 67.691406 L 298 111 L 76 111 Z M 76 67.691406 " clip-rule="nonzero"/></clipPath><clipPath id="c42e062564"><path d="M 10.332031 282 L 78 282 L 78 291 L 10.332031 291 Z M 10.332031 282 " clip-rule="nonzero"/></clipPath><clipPath id="bd5394446b"><path d="M 277.039062 282 L 364.136719 282 L 364.136719 291 L 277.039062 291 Z M 277.039062 282 " clip-rule="nonzero"/></clipPath></defs><g clip-path="url(#8cc9aa0d47)"><path fill="#583fd3" d="M 190.320312 306.941406 C 187.609375 306.941406 184.898438 306.363281 182.363281 305.210938 L 79.25 258.257812 C 77.761719 257.582031 76.808594 256.09375 76.808594 254.460938 L 76.808594 162.636719 C 76.808594 160.332031 78.675781 158.464844 80.984375 158.464844 C 83.289062 158.464844 85.160156 160.332031 85.160156 162.636719 L 85.160156 251.773438 L 185.824219 297.613281 C 188.765625 298.957031 192.125 298.914062 195.042969 297.507812 L 289.519531 251.839844 L 289.519531 162.042969 C 289.519531 159.738281 291.390625 157.867188 293.695312 157.867188 C 296 157.867188 297.871094 159.738281 297.871094 162.042969 L 297.871094 254.460938 C 297.871094 256.058594 296.957031 257.519531 295.515625 258.21875 L 198.675781 305.019531 C 196.03125 306.300781 193.175781 306.941406 190.320312 306.941406 " fill-opacity="1" fill-rule="nonzero"/></g><path fill="#583fd3" d="M 190.511719 155.121094 C 189.980469 155.121094 189.445312 155.019531 188.941406 154.816406 L 79.414062 110.4375 C 77.277344 109.574219 76.246094 107.140625 77.113281 105 C 77.976562 102.863281 80.414062 101.835938 82.550781 102.703125 L 190.464844 146.425781 L 292.046875 102.738281 C 294.164062 101.828125 296.617188 102.800781 297.53125 104.921875 C 298.441406 107.039062 297.464844 109.492188 295.347656 110.402344 L 192.164062 154.78125 C 191.632812 155.007812 191.070312 155.121094 190.511719 155.121094 " fill-opacity="1" fill-rule="nonzero"/><path fill="#583fd3" d="M 157.515625 201.707031 C 156.40625 201.707031 155.28125 201.46875 154.210938 200.972656 L 50.203125 152.8125 C 48.386719 151.96875 47.070312 150.371094 46.59375 148.429688 C 46.117188 146.488281 46.542969 144.46875 47.765625 142.882812 L 77.671875 104.027344 C 79.078125 102.199219 81.699219 101.855469 83.527344 103.261719 C 85.359375 104.667969 85.699219 107.289062 84.292969 109.113281 L 55.757812 146.183594 L 157.300781 193.207031 L 187.039062 148.632812 C 188.316406 146.714844 190.90625 146.195312 192.828125 147.476562 C 194.746094 148.753906 195.265625 151.34375 193.984375 153.261719 L 163.996094 198.222656 C 162.5 200.460938 160.050781 201.707031 157.515625 201.707031 " fill-opacity="1" fill-rule="nonzero"/><g clip-path="url(#eee756c288)"><path fill="#583fd3" d="M 293.699219 110.742188 C 293.265625 110.742188 292.828125 110.679688 292.394531 110.535156 L 188.40625 76.441406 C 187.707031 76.214844 186.96875 76.214844 186.273438 76.441406 L 82.285156 110.535156 C 80.089844 111.253906 77.730469 110.0625 77.015625 107.871094 C 76.292969 105.679688 77.488281 103.320312 79.679688 102.605469 L 183.667969 68.511719 C 186.070312 67.726562 188.605469 67.726562 191.007812 68.511719 L 294.996094 102.605469 C 297.1875 103.320312 298.382812 105.679688 297.664062 107.871094 C 297.085938 109.628906 295.453125 110.742188 293.699219 110.742188 " fill-opacity="1" fill-rule="nonzero"/></g><path fill="#583fd3" d="M 317.238281 147.890625 L 317.246094 147.890625 Z M 226.460938 198.566406 C 224.117188 198.566406 221.8125 197.515625 220.296875 195.589844 L 187.226562 153.527344 C 185.800781 151.714844 186.117188 149.089844 187.929688 147.667969 C 189.746094 146.242188 192.367188 146.558594 193.792969 148.367188 L 226.59375 190.089844 L 316.046875 146.167969 L 290.261719 108.945312 C 288.949219 107.050781 289.421875 104.449219 291.320312 103.136719 C 293.214844 101.828125 295.816406 102.296875 297.128906 104.195312 L 324.105469 143.136719 C 325.191406 144.707031 325.542969 146.664062 325.058594 148.511719 C 324.582031 150.355469 323.324219 151.894531 321.609375 152.738281 L 229.882812 197.773438 C 228.792969 198.308594 227.621094 198.566406 226.460938 198.566406 " fill-opacity="1" fill-rule="nonzero"/><path fill="#583fd3" d="M 172.5625 217.308594 C 171.574219 219.347656 169.488281 220.757812 167.070312 220.757812 C 163.695312 220.757812 160.957031 218.023438 160.957031 214.652344 C 160.957031 212.234375 162.367188 210.144531 164.410156 209.160156 C 162.539062 208.359375 160.484375 207.914062 158.324219 207.914062 C 149.773438 207.914062 142.839844 214.84375 142.839844 223.390625 C 142.839844 231.9375 149.773438 238.863281 158.324219 238.863281 C 166.875 238.863281 173.808594 231.9375 173.808594 223.390625 C 173.808594 221.230469 173.363281 219.175781 172.5625 217.308594 " fill-opacity="1" fill-rule="nonzero"/><path fill="#583fd3" d="M 188.136719 269.980469 C 177.589844 269.980469 167.65625 265.886719 160.167969 258.464844 C 158.53125 256.839844 158.519531 254.199219 160.148438 252.5625 C 161.773438 250.921875 164.414062 250.914062 166.050781 252.539062 C 171.960938 258.402344 179.808594 261.632812 188.136719 261.632812 C 196.511719 261.632812 204.382812 258.371094 210.304688 252.457031 C 211.9375 250.820312 214.578125 250.824219 216.210938 252.453125 C 217.839844 254.082031 217.839844 256.726562 216.210938 258.355469 C 208.710938 265.851562 198.742188 269.980469 188.136719 269.980469 " fill-opacity="1" fill-rule="nonzero"/><path fill="#583fd3" d="M 232.285156 217.308594 C 231.296875 219.347656 229.207031 220.757812 226.789062 220.757812 C 223.414062 220.757812 220.679688 218.023438 220.679688 214.652344 C 220.679688 212.234375 222.089844 210.144531 224.128906 209.160156 C 222.261719 208.359375 220.203125 207.914062 218.046875 207.914062 C 209.492188 207.914062 202.558594 214.84375 202.558594 223.390625 C 202.558594 231.9375 209.492188 238.863281 218.046875 238.863281 C 226.59375 238.863281 233.53125 231.9375 233.53125 223.390625 C 233.53125 221.230469 233.085938 219.175781 232.285156 217.308594 " fill-opacity="1" fill-rule="nonzero"/><g clip-path="url(#c42e062564)"><path fill="#583fd3" d="M 72.964844 290.742188 L 14.71875 290.742188 C 12.410156 290.742188 10.542969 288.875 10.542969 286.570312 C 10.542969 284.265625 12.410156 282.394531 14.71875 282.394531 L 72.964844 282.394531 C 75.269531 282.394531 77.140625 284.265625 77.140625 286.570312 C 77.140625 288.875 75.269531 290.742188 72.964844 290.742188 " fill-opacity="1" fill-rule="nonzero"/></g><path fill="#583fd3" d="M 92.808594 290.742188 L 92.3125 290.742188 C 90.003906 290.742188 88.136719 288.875 88.136719 286.570312 C 88.136719 284.265625 90.003906 282.394531 92.3125 282.394531 L 92.808594 282.394531 C 95.113281 282.394531 96.988281 284.265625 96.988281 286.570312 C 96.988281 288.875 95.113281 290.742188 92.808594 290.742188 " fill-opacity="1" fill-rule="nonzero"/><path fill="#583fd3" d="M 315.230469 258.632812 L 293.695312 258.632812 C 291.390625 258.632812 289.519531 256.765625 289.519531 254.460938 C 289.519531 252.152344 291.390625 250.285156 293.695312 250.285156 L 315.230469 250.285156 C 317.535156 250.285156 319.40625 252.152344 319.40625 254.460938 C 319.40625 256.765625 317.535156 258.632812 315.230469 258.632812 " fill-opacity="1" fill-rule="nonzero"/><path fill="#583fd3" d="M 80.984375 258.632812 L 45.085938 258.632812 C 42.78125 258.632812 40.910156 256.765625 40.910156 254.460938 C 40.910156 252.152344 42.78125 250.285156 45.085938 250.285156 L 80.984375 250.285156 C 83.289062 250.285156 85.160156 252.152344 85.160156 254.460938 C 85.160156 256.765625 83.289062 258.632812 80.984375 258.632812 " fill-opacity="1" fill-rule="nonzero"/><g clip-path="url(#bd5394446b)"><path fill="#583fd3" d="M 359.960938 290.742188 L 281.871094 290.742188 C 279.5625 290.742188 277.695312 288.875 277.695312 286.570312 C 277.695312 284.265625 279.5625 282.394531 281.871094 282.394531 L 359.960938 282.394531 C 362.265625 282.394531 364.136719 284.265625 364.136719 286.570312 C 364.136719 288.875 362.265625 290.742188 359.960938 290.742188 " fill-opacity="1" fill-rule="nonzero"/></g><path fill="#583fd3" d="M 335.160156 258.632812 L 334.660156 258.632812 C 332.355469 258.632812 330.484375 256.765625 330.484375 254.460938 C 330.484375 252.152344 332.355469 250.285156 334.660156 250.285156 L 335.160156 250.285156 C 337.464844 250.285156 339.335938 252.152344 339.335938 254.460938 C 339.335938 256.765625 337.464844 258.632812 335.160156 258.632812 " fill-opacity="1" fill-rule="nonzero"/></svg>