<svg xmlns="http://www.w3.org/2000/svg" xmlns:xlink="http://www.w3.org/1999/xlink" width="500" zoomAndPan="magnify" viewBox="0 0 375 374.999991" height="500" preserveAspectRatio="xMidYMid meet" version="1.0"><defs><g/><clipPath id="c464bd5132"><path d="M 102 125 L 272 125 L 272 239.050781 L 102 239.050781 Z M 102 125 " clip-rule="nonzero"/></clipPath><clipPath id="95a8f09d28"><path d="M 102 56.050781 L 272 56.050781 L 272 89 L 102 89 Z M 102 56.050781 " clip-rule="nonzero"/></clipPath><clipPath id="d89b739aae"><path d="M 52.070312 220 L 104 220 L 104 227 L 52.070312 227 Z M 52.070312 220 " clip-rule="nonzero"/></clipPath><clipPath id="d0dc81424e"><path d="M 256.050781 220 L 322.667969 220 L 322.667969 226.859375 L 256.050781 226.859375 Z M 256.050781 220 " clip-rule="nonzero"/></clipPath></defs><g clip-path="url(#c464bd5132)"><path fill="#583fd3" d="M 189.730469 239.050781 C 187.65625 239.050781 185.582031 238.605469 183.644531 237.726562 L 104.78125 201.808594 C 103.640625 201.292969 102.910156 200.15625 102.910156 198.90625 L 102.910156 128.671875 C 102.910156 126.910156 104.339844 125.480469 106.105469 125.480469 C 107.867188 125.480469 109.296875 126.910156 109.296875 128.671875 L 109.296875 196.851562 L 186.289062 231.914062 C 188.539062 232.941406 191.109375 232.910156 193.339844 231.832031 L 265.597656 196.90625 L 265.597656 128.21875 C 265.597656 126.453125 267.027344 125.027344 268.792969 125.027344 C 270.554688 125.027344 271.984375 126.453125 271.984375 128.21875 L 271.984375 198.90625 C 271.984375 200.128906 271.285156 201.25 270.183594 201.78125 L 196.117188 237.578125 C 194.09375 238.558594 191.914062 239.050781 189.730469 239.050781 " fill-opacity="1" fill-rule="nonzero"/></g><path fill="#583fd3" d="M 189.875 122.921875 C 189.46875 122.921875 189.058594 122.847656 188.675781 122.691406 L 104.90625 88.746094 C 103.269531 88.082031 102.480469 86.222656 103.144531 84.589844 C 103.804688 82.953125 105.667969 82.167969 107.304688 82.828125 L 189.835938 116.273438 L 267.53125 82.855469 C 269.148438 82.160156 271.027344 82.90625 271.726562 84.527344 C 272.421875 86.144531 271.675781 88.023438 270.054688 88.71875 L 191.136719 122.664062 C 190.734375 122.835938 190.300781 122.921875 189.875 122.921875 " fill-opacity="1" fill-rule="nonzero"/><path fill="#583fd3" d="M 164.640625 158.558594 C 163.789062 158.558594 162.929688 158.375 162.113281 157.996094 L 82.5625 121.15625 C 81.171875 120.515625 80.167969 119.292969 79.804688 117.808594 C 79.4375 116.320312 79.765625 114.777344 80.699219 113.5625 L 103.574219 83.84375 C 104.648438 82.441406 106.652344 82.183594 108.050781 83.257812 C 109.449219 84.332031 109.710938 86.335938 108.636719 87.734375 L 86.8125 116.089844 L 164.476562 152.054688 L 187.21875 117.960938 C 188.195312 116.492188 190.179688 116.097656 191.644531 117.078125 C 193.113281 118.054688 193.511719 120.035156 192.53125 121.503906 L 169.59375 155.890625 C 168.449219 157.605469 166.578125 158.558594 164.640625 158.558594 " fill-opacity="1" fill-rule="nonzero"/><g clip-path="url(#95a8f09d28)"><path fill="#583fd3" d="M 268.792969 88.980469 C 268.460938 88.980469 268.128906 88.929688 267.796875 88.820312 L 188.261719 62.742188 C 187.730469 62.570312 187.164062 62.570312 186.632812 62.742188 L 107.101562 88.820312 C 105.421875 89.371094 103.617188 88.457031 103.070312 86.78125 C 102.519531 85.105469 103.433594 83.300781 105.109375 82.753906 L 184.640625 56.675781 C 186.476562 56.074219 188.417969 56.074219 190.253906 56.675781 L 269.789062 82.753906 C 271.464844 83.300781 272.378906 85.105469 271.828125 86.78125 C 271.386719 88.128906 270.136719 88.980469 268.792969 88.980469 " fill-opacity="1" fill-rule="nonzero"/></g><path fill="#583fd3" d="M 286.800781 117.390625 L 286.804688 117.390625 Z M 217.371094 156.152344 C 215.578125 156.152344 213.8125 155.351562 212.65625 153.878906 L 187.363281 121.703125 C 186.273438 120.320312 186.515625 118.308594 187.902344 117.222656 C 189.289062 116.132812 191.292969 116.375 192.386719 117.757812 L 217.46875 149.667969 L 285.886719 116.078125 L 266.167969 87.601562 C 265.164062 86.15625 265.523438 84.167969 266.976562 83.160156 C 268.425781 82.160156 270.414062 82.519531 271.417969 83.972656 L 292.050781 113.757812 C 292.882812 114.957031 293.148438 116.457031 292.777344 117.867188 C 292.414062 119.277344 291.453125 120.457031 290.140625 121.101562 L 219.988281 155.546875 C 219.152344 155.957031 218.257812 156.152344 217.371094 156.152344 " fill-opacity="1" fill-rule="nonzero"/><path fill="#583fd3" d="M 176.148438 170.488281 C 175.390625 172.050781 173.796875 173.128906 171.945312 173.128906 C 169.363281 173.128906 167.269531 171.035156 167.269531 168.457031 C 167.269531 166.609375 168.351562 165.011719 169.910156 164.257812 C 168.480469 163.644531 166.910156 163.304688 165.253906 163.304688 C 158.714844 163.304688 153.414062 168.605469 153.414062 175.140625 C 153.414062 181.679688 158.714844 186.980469 165.253906 186.980469 C 171.796875 186.980469 177.097656 181.679688 177.097656 175.140625 C 177.097656 173.492188 176.757812 171.917969 176.148438 170.488281 " fill-opacity="1" fill-rule="nonzero"/><path fill="#583fd3" d="M 188.058594 210.777344 C 179.992188 210.777344 172.394531 207.648438 166.667969 201.96875 C 165.414062 200.726562 165.40625 198.707031 166.652344 197.457031 C 167.894531 196.203125 169.914062 196.195312 171.167969 197.4375 C 175.6875 201.921875 181.6875 204.394531 188.058594 204.394531 C 194.460938 204.394531 200.484375 201.898438 205.011719 197.375 C 206.261719 196.125 208.28125 196.125 209.527344 197.371094 C 210.777344 198.617188 210.777344 200.640625 209.53125 201.886719 C 203.792969 207.617188 196.167969 210.777344 188.058594 210.777344 " fill-opacity="1" fill-rule="nonzero"/><path fill="#583fd3" d="M 221.824219 170.488281 C 221.066406 172.050781 219.472656 173.128906 217.621094 173.128906 C 215.039062 173.128906 212.949219 171.035156 212.949219 168.457031 C 212.949219 166.609375 214.027344 165.011719 215.585938 164.257812 C 214.160156 163.644531 212.585938 163.304688 210.933594 163.304688 C 204.390625 163.304688 199.085938 168.605469 199.085938 175.140625 C 199.085938 181.679688 204.390625 186.980469 210.933594 186.980469 C 217.472656 186.980469 222.777344 181.679688 222.777344 175.140625 C 222.777344 173.492188 222.4375 171.917969 221.824219 170.488281 " fill-opacity="1" fill-rule="nonzero"/><g clip-path="url(#d89b739aae)"><path fill="#583fd3" d="M 99.972656 226.660156 L 55.421875 226.660156 C 53.65625 226.660156 52.230469 225.230469 52.230469 223.464844 C 52.230469 221.707031 53.65625 220.273438 55.421875 220.273438 L 99.972656 220.273438 C 101.734375 220.273438 103.164062 221.707031 103.164062 223.464844 C 103.164062 225.230469 101.734375 226.660156 99.972656 226.660156 " fill-opacity="1" fill-rule="nonzero"/></g><path fill="#583fd3" d="M 115.152344 226.660156 L 114.769531 226.660156 C 113.003906 226.660156 111.574219 225.230469 111.574219 223.464844 C 111.574219 221.707031 113.003906 220.273438 114.769531 220.273438 L 115.152344 220.273438 C 116.914062 220.273438 118.34375 221.707031 118.34375 223.464844 C 118.34375 225.230469 116.914062 226.660156 115.152344 226.660156 " fill-opacity="1" fill-rule="nonzero"/><path fill="#583fd3" d="M 285.261719 202.097656 L 268.792969 202.097656 C 267.027344 202.097656 265.597656 200.671875 265.597656 198.90625 C 265.597656 197.140625 267.027344 195.714844 268.792969 195.714844 L 285.261719 195.714844 C 287.023438 195.714844 288.457031 197.140625 288.457031 198.90625 C 288.457031 200.671875 287.023438 202.097656 285.261719 202.097656 " fill-opacity="1" fill-rule="nonzero"/><path fill="#583fd3" d="M 106.105469 202.097656 L 78.652344 202.097656 C 76.886719 202.097656 75.457031 200.671875 75.457031 198.90625 C 75.457031 197.140625 76.886719 195.714844 78.652344 195.714844 L 106.105469 195.714844 C 107.867188 195.714844 109.296875 197.140625 109.296875 198.90625 C 109.296875 200.671875 107.867188 202.097656 106.105469 202.097656 " fill-opacity="1" fill-rule="nonzero"/><g clip-path="url(#d0dc81424e)"><path fill="#583fd3" d="M 319.472656 226.660156 L 259.746094 226.660156 C 257.984375 226.660156 256.554688 225.230469 256.554688 223.464844 C 256.554688 221.707031 257.984375 220.273438 259.746094 220.273438 L 319.472656 220.273438 C 321.238281 220.273438 322.667969 221.707031 322.667969 223.464844 C 322.667969 225.230469 321.238281 226.660156 319.472656 226.660156 " fill-opacity="1" fill-rule="nonzero"/></g><path fill="#583fd3" d="M 300.503906 202.097656 L 300.125 202.097656 C 298.359375 202.097656 296.929688 200.671875 296.929688 198.90625 C 296.929688 197.140625 298.359375 195.714844 300.125 195.714844 L 300.503906 195.714844 C 302.269531 195.714844 303.699219 197.140625 303.699219 198.90625 C 303.699219 200.671875 302.269531 202.097656 300.503906 202.097656 " fill-opacity="1" fill-rule="nonzero"/><g fill="#583fd3" fill-opacity="1"><g transform="translate(42.962673, 305.953266)"><g><path d="M 20.421875 -8.8125 C 20.421875 -10.125 19.957031 -11.128906 19.03125 -11.828125 C 18.113281 -12.523438 16.453125 -13.257812 14.046875 -14.03125 C 11.648438 -14.8125 9.753906 -15.578125 8.359375 -16.328125 C 4.535156 -18.390625 2.625 -21.164062 2.625 -24.65625 C 2.625 -26.476562 3.132812 -28.097656 4.15625 -29.515625 C 5.1875 -30.941406 6.65625 -32.050781 8.5625 -32.84375 C 10.476562 -33.644531 12.628906 -34.046875 15.015625 -34.046875 C 17.421875 -34.046875 19.5625 -33.613281 21.4375 -32.75 C 23.3125 -31.882812 24.765625 -30.65625 25.796875 -29.0625 C 26.835938 -27.476562 27.359375 -25.679688 27.359375 -23.671875 L 20.4375 -23.671875 C 20.4375 -25.210938 19.953125 -26.410156 18.984375 -27.265625 C 18.015625 -28.117188 16.65625 -28.546875 14.90625 -28.546875 C 13.207031 -28.546875 11.890625 -28.1875 10.953125 -27.46875 C 10.015625 -26.75 9.546875 -25.804688 9.546875 -24.640625 C 9.546875 -23.546875 10.09375 -22.628906 11.1875 -21.890625 C 12.289062 -21.148438 13.914062 -20.457031 16.0625 -19.8125 C 20 -18.632812 22.863281 -17.164062 24.65625 -15.40625 C 26.457031 -13.65625 27.359375 -11.472656 27.359375 -8.859375 C 27.359375 -5.953125 26.257812 -3.671875 24.0625 -2.015625 C 21.863281 -0.359375 18.90625 0.46875 15.1875 0.46875 C 12.601562 0.46875 10.25 -0.00390625 8.125 -0.953125 C 6 -1.898438 4.378906 -3.195312 3.265625 -4.84375 C 2.148438 -6.488281 1.59375 -8.394531 1.59375 -10.5625 L 8.53125 -10.5625 C 8.53125 -6.851562 10.75 -5 15.1875 -5 C 16.832031 -5 18.113281 -5.332031 19.03125 -6 C 19.957031 -6.675781 20.421875 -7.613281 20.421875 -8.8125 Z M 20.421875 -8.8125 "/></g></g></g><g fill="#583fd3" fill-opacity="1"><g transform="translate(72.006852, 305.953266)"><g><path d="M 28.28125 -27.984375 L 18 -27.984375 L 18 0 L 11.078125 0 L 11.078125 -27.984375 L 0.921875 -27.984375 L 0.921875 -33.59375 L 28.28125 -33.59375 Z M 28.28125 -27.984375 "/></g></g></g><g fill="#583fd3" fill-opacity="1"><g transform="translate(101.235585, 305.953266)"><g><path d="M 30.59375 -16.03125 C 30.59375 -12.726562 30.003906 -9.828125 28.828125 -7.328125 C 27.660156 -4.835938 25.988281 -2.914062 23.8125 -1.5625 C 21.644531 -0.207031 19.148438 0.46875 16.328125 0.46875 C 13.546875 0.46875 11.0625 -0.195312 8.875 -1.53125 C 6.695312 -2.875 5.003906 -4.785156 3.796875 -7.265625 C 2.597656 -9.753906 1.992188 -12.613281 1.984375 -15.84375 L 1.984375 -17.515625 C 1.984375 -20.816406 2.578125 -23.722656 3.765625 -26.234375 C 4.960938 -28.753906 6.648438 -30.6875 8.828125 -32.03125 C 11.003906 -33.375 13.488281 -34.046875 16.28125 -34.046875 C 19.082031 -34.046875 21.570312 -33.375 23.75 -32.03125 C 25.925781 -30.6875 27.609375 -28.753906 28.796875 -26.234375 C 29.992188 -23.722656 30.59375 -20.820312 30.59375 -17.53125 Z M 23.578125 -17.5625 C 23.578125 -21.082031 22.945312 -23.753906 21.6875 -25.578125 C 20.425781 -27.410156 18.625 -28.328125 16.28125 -28.328125 C 13.957031 -28.328125 12.164062 -27.421875 10.90625 -25.609375 C 9.644531 -23.804688 9.007812 -21.160156 9 -17.671875 L 9 -16.03125 C 9 -12.601562 9.628906 -9.941406 10.890625 -8.046875 C 12.148438 -6.160156 13.960938 -5.21875 16.328125 -5.21875 C 18.648438 -5.21875 20.4375 -6.128906 21.6875 -7.953125 C 22.9375 -9.773438 23.566406 -12.429688 23.578125 -15.921875 Z M 23.578125 -17.5625 "/></g></g></g><g fill="#583fd3" fill-opacity="1"><g transform="translate(133.855497, 305.953266)"><g><path d="M 29.375 -11.1875 C 29.113281 -7.570312 27.773438 -4.722656 25.359375 -2.640625 C 22.953125 -0.566406 19.78125 0.46875 15.84375 0.46875 C 11.539062 0.46875 8.15625 -0.976562 5.6875 -3.875 C 3.21875 -6.78125 1.984375 -10.765625 1.984375 -15.828125 L 1.984375 -17.875 C 1.984375 -21.101562 2.550781 -23.945312 3.6875 -26.40625 C 4.832031 -28.875 6.460938 -30.765625 8.578125 -32.078125 C 10.691406 -33.390625 13.144531 -34.046875 15.9375 -34.046875 C 19.8125 -34.046875 22.929688 -33.007812 25.296875 -30.9375 C 27.671875 -28.863281 29.046875 -25.945312 29.421875 -22.1875 L 22.5 -22.1875 C 22.320312 -24.363281 21.710938 -25.9375 20.671875 -26.90625 C 19.640625 -27.882812 18.0625 -28.375 15.9375 -28.375 C 13.632812 -28.375 11.910156 -27.546875 10.765625 -25.890625 C 9.617188 -24.242188 9.03125 -21.679688 9 -18.203125 L 9 -15.671875 C 9 -12.035156 9.546875 -9.378906 10.640625 -7.703125 C 11.742188 -6.023438 13.476562 -5.1875 15.84375 -5.1875 C 17.988281 -5.1875 19.585938 -5.675781 20.640625 -6.65625 C 21.691406 -7.632812 22.296875 -9.144531 22.453125 -11.1875 Z M 29.375 -11.1875 "/></g></g></g><g fill="#583fd3" fill-opacity="1"><g transform="translate(164.768285, 305.953266)"><g><path d="M 13.515625 -13.46875 L 9.921875 -9.59375 L 9.921875 0 L 3 0 L 3 -33.59375 L 9.921875 -33.59375 L 9.921875 -18.359375 L 12.96875 -22.546875 L 21.53125 -33.59375 L 30.03125 -33.59375 L 18.109375 -18.671875 L 30.390625 0 L 22.15625 0 Z M 13.515625 -13.46875 "/></g></g></g><g fill="#583fd3" fill-opacity="1"><g transform="translate(194.758303, 305.953266)"><g/></g></g><g fill="#583fd3" fill-opacity="1"><g transform="translate(206.523617, 305.953266)"><g><path d="M 20.421875 -8.8125 C 20.421875 -10.125 19.957031 -11.128906 19.03125 -11.828125 C 18.113281 -12.523438 16.453125 -13.257812 14.046875 -14.03125 C 11.648438 -14.8125 9.753906 -15.578125 8.359375 -16.328125 C 4.535156 -18.390625 2.625 -21.164062 2.625 -24.65625 C 2.625 -26.476562 3.132812 -28.097656 4.15625 -29.515625 C 5.1875 -30.941406 6.65625 -32.050781 8.5625 -32.84375 C 10.476562 -33.644531 12.628906 -34.046875 15.015625 -34.046875 C 17.421875 -34.046875 19.5625 -33.613281 21.4375 -32.75 C 23.3125 -31.882812 24.765625 -30.65625 25.796875 -29.0625 C 26.835938 -27.476562 27.359375 -25.679688 27.359375 -23.671875 L 20.4375 -23.671875 C 20.4375 -25.210938 19.953125 -26.410156 18.984375 -27.265625 C 18.015625 -28.117188 16.65625 -28.546875 14.90625 -28.546875 C 13.207031 -28.546875 11.890625 -28.1875 10.953125 -27.46875 C 10.015625 -26.75 9.546875 -25.804688 9.546875 -24.640625 C 9.546875 -23.546875 10.09375 -22.628906 11.1875 -21.890625 C 12.289062 -21.148438 13.914062 -20.457031 16.0625 -19.8125 C 20 -18.632812 22.863281 -17.164062 24.65625 -15.40625 C 26.457031 -13.65625 27.359375 -11.472656 27.359375 -8.859375 C 27.359375 -5.953125 26.257812 -3.671875 24.0625 -2.015625 C 21.863281 -0.359375 18.90625 0.46875 15.1875 0.46875 C 12.601562 0.46875 10.25 -0.00390625 8.125 -0.953125 C 6 -1.898438 4.378906 -3.195312 3.265625 -4.84375 C 2.148438 -6.488281 1.59375 -8.394531 1.59375 -10.5625 L 8.53125 -10.5625 C 8.53125 -6.851562 10.75 -5 15.1875 -5 C 16.832031 -5 18.113281 -5.332031 19.03125 -6 C 19.957031 -6.675781 20.421875 -7.613281 20.421875 -8.8125 Z M 20.421875 -8.8125 "/></g></g></g><g fill="#583fd3" fill-opacity="1"><g transform="translate(235.567797, 305.953266)"><g><path d="M 30.34375 0 L 23.421875 0 L 23.421875 -14.390625 L 9.921875 -14.390625 L 9.921875 0 L 3 0 L 3 -33.59375 L 9.921875 -33.59375 L 9.921875 -19.984375 L 23.421875 -19.984375 L 23.421875 -33.59375 L 30.34375 -33.59375 Z M 30.34375 0 "/></g></g></g><g fill="#583fd3" fill-opacity="1"><g transform="translate(268.948994, 305.953266)"><g><path d="M 30.59375 -16.03125 C 30.59375 -12.726562 30.003906 -9.828125 28.828125 -7.328125 C 27.660156 -4.835938 25.988281 -2.914062 23.8125 -1.5625 C 21.644531 -0.207031 19.148438 0.46875 16.328125 0.46875 C 13.546875 0.46875 11.0625 -0.195312 8.875 -1.53125 C 6.695312 -2.875 5.003906 -4.785156 3.796875 -7.265625 C 2.597656 -9.753906 1.992188 -12.613281 1.984375 -15.84375 L 1.984375 -17.515625 C 1.984375 -20.816406 2.578125 -23.722656 3.765625 -26.234375 C 4.960938 -28.753906 6.648438 -30.6875 8.828125 -32.03125 C 11.003906 -33.375 13.488281 -34.046875 16.28125 -34.046875 C 19.082031 -34.046875 21.570312 -33.375 23.75 -32.03125 C 25.925781 -30.6875 27.609375 -28.753906 28.796875 -26.234375 C 29.992188 -23.722656 30.59375 -20.820312 30.59375 -17.53125 Z M 23.578125 -17.5625 C 23.578125 -21.082031 22.945312 -23.753906 21.6875 -25.578125 C 20.425781 -27.410156 18.625 -28.328125 16.28125 -28.328125 C 13.957031 -28.328125 12.164062 -27.421875 10.90625 -25.609375 C 9.644531 -23.804688 9.007812 -21.160156 9 -17.671875 L 9 -16.03125 C 9 -12.601562 9.628906 -9.941406 10.890625 -8.046875 C 12.148438 -6.160156 13.960938 -5.21875 16.328125 -5.21875 C 18.648438 -5.21875 20.4375 -6.128906 21.6875 -7.953125 C 22.9375 -9.773438 23.566406 -12.429688 23.578125 -15.921875 Z M 23.578125 -17.5625 "/></g></g></g><g fill="#583fd3" fill-opacity="1"><g transform="translate(301.568905, 305.953266)"><g><path d="M 9.921875 -11.828125 L 9.921875 0 L 3 0 L 3 -33.59375 L 16.109375 -33.59375 C 18.628906 -33.59375 20.84375 -33.128906 22.75 -32.203125 C 24.664062 -31.285156 26.140625 -29.972656 27.171875 -28.265625 C 28.203125 -26.566406 28.71875 -24.632812 28.71875 -22.46875 C 28.71875 -19.175781 27.59375 -16.578125 25.34375 -14.671875 C 23.09375 -12.773438 19.972656 -11.828125 15.984375 -11.828125 Z M 9.921875 -17.4375 L 16.109375 -17.4375 C 17.929688 -17.4375 19.320312 -17.867188 20.28125 -18.734375 C 21.25 -19.597656 21.734375 -20.828125 21.734375 -22.421875 C 21.734375 -24.066406 21.25 -25.394531 20.28125 -26.40625 C 19.3125 -27.425781 17.972656 -27.953125 16.265625 -27.984375 L 9.921875 -27.984375 Z M 9.921875 -17.4375 "/></g></g></g></svg>